<svg width="35" height="36" viewBox="0 0 35 36" fill="none" xmlns="http://www.w3.org/2000/svg">
<path d="M0.963776 1.73474H3.86378C5.66378 1.73474 7.08044 3.28474 6.93044 5.06807L5.54711 21.6681C5.4931 22.3112 5.57325 22.9585 5.7825 23.569C5.99175 24.1795 6.32552 24.7399 6.76268 25.2146C7.19983 25.6894 7.73083 26.0682 8.32203 26.327C8.91323 26.5858 9.55174 26.719 10.1971 26.7181H27.9471C30.3471 26.7181 32.4471 24.7514 32.6304 22.3681L33.5304 9.86807C33.7304 7.10141 31.6304 4.85141 28.8471 4.85141H7.33044M12.6304 11.7347H32.6304M24.7138 35.0681C25.2663 35.0681 25.7962 34.8486 26.1869 34.4579C26.5776 34.0672 26.7971 33.5373 26.7971 32.9847C26.7971 32.4322 26.5776 31.9023 26.1869 31.5116C25.7962 31.1209 25.2663 30.9014 24.7138 30.9014C24.1612 30.9014 23.6313 31.1209 23.2406 31.5116C22.8499 31.9023 22.6304 32.4322 22.6304 32.9847C22.6304 33.5373 22.8499 34.0672 23.2406 34.4579C23.6313 34.8486 24.1612 35.0681 24.7138 35.0681ZM11.3804 35.0681C11.933 35.0681 12.4629 34.8486 12.8536 34.4579C13.2443 34.0672 13.4638 33.5373 13.4638 32.9847C13.4638 32.4322 13.2443 31.9023 12.8536 31.5116C12.4629 31.1209 11.933 30.9014 11.3804 30.9014C10.8279 30.9014 10.298 31.1209 9.9073 31.5116C9.5166 31.9023 9.29711 32.4322 9.29711 32.9847C9.29711 33.5373 9.5166 34.0672 9.9073 34.4579C10.298 34.8486 10.8279 35.0681 11.3804 35.0681Z" stroke="#D2F200" stroke-width="1.5" stroke-miterlimit="10" stroke-linecap="round" stroke-linejoin="round"/>
</svg>
