<svg width="13" height="14" viewBox="0 0 13 14" fill="none" xmlns="http://www.w3.org/2000/svg">
<path d="M7.62299 1.18542L8.76687 3.49207C8.92285 3.81317 9.3388 4.12116 9.68977 4.18014L11.763 4.52745C13.0889 4.75025 13.4009 5.72009 12.4455 6.67683L10.8336 8.30197C10.5607 8.57719 10.4112 9.10799 10.4957 9.48806L10.9571 11.4998C11.3211 13.0922 10.4827 13.7082 9.08533 12.876L7.14205 11.7161C6.79109 11.5064 6.21265 11.5064 5.85519 11.7161L3.9119 12.876C2.52106 13.7082 1.67615 13.0857 2.04011 11.4998L2.50156 9.48806C2.58605 9.10799 2.43657 8.57719 2.1636 8.30197L0.551776 6.67683C-0.39712 5.72009 -0.0916531 4.75025 1.2342 4.52745L3.30747 4.18014C3.65193 4.12116 4.06789 3.81317 4.22387 3.49207L5.36774 1.18542C5.99167 -0.0662012 7.00556 -0.0662012 7.62299 1.18542Z" fill="#D2F200"/>
</svg>
